<svg id="vpc" xmlns="http://www.w3.org/2000/svg" viewBox="0 0 1480 800"><defs><style>.cls-1,.cls-5,.cls-7{fill:none;}.cls-1{stroke:#2c7cb0;stroke-width:7px;}.cls-1,.cls-7{stroke-linecap:round;stroke-linejoin:round;}.cls-2{fill:gray;}.cls-3{fill:#fff;}.cls-4{fill:#404242;}.cls-5{stroke:#36393a;stroke-miterlimit:10;}.cls-5,.cls-7{stroke-width:5px;}.cls-6{fill:#36393a;}.cls-7{stroke:#398557;}.cls-8{fill:#398557;}</style></defs><title>BDES-19_What is VPC_0130</title><path class="cls-1" d="M480.16,270.56c1-80.91,81-141.08,159.34-121.75,98.11-182.36,392.19-112.42,393.85,97.95,135.33,43.09,103,253.09-41.33,251.31H512.77a116.07,116.07,0,0,1-32.61-227.51"/><path class="cls-2" d="M753.92,275.53a59.51,59.51,0,0,1,59.61-57.91,60.45,60.45,0,0,1,14.14,1.56A97.52,97.52,0,0,1,1010,264.52a59.74,59.74,0,0,1-19.13,116.33H769a53.73,53.73,0,0,1-15.09-105.32"/><rect class="cls-3" x="44" y="344" width="173" height="118"/><rect class="cls-3" x="155" y="576" width="173" height="118"/><rect class="cls-3" x="410" y="656" width="173" height="118"/><rect class="cls-3" x="1272" y="250" width="173" height="118"/><path class="cls-4" d="M219.86,456.71V349.63a8.47,8.47,0,0,0-8.46-8.46H50a8.47,8.47,0,0,0-8.46,8.46V456.71H30.26c1,7.65,6.31,13.53,12.67,13.53H217.6c6.36,0,11.66-5.88,12.66-13.53ZM51.22,350.83h159V456.71h-159Z"/><line class="cls-5" x1="367.29" y1="403.28" x2="235.71" y2="403.28"/><polygon class="cls-6" points="357.33 394.8 365.81 403.28 357.33 411.75 364.52 411.75 373 403.28 364.52 394.8 357.33 394.8"/><polygon class="cls-6" points="245.67 394.8 237.19 403.28 245.67 411.75 238.48 411.75 230 403.28 238.48 394.8 245.67 394.8"/><line class="cls-7" x1="1252.55" y1="322.23" x2="1056.71" y2="322.23"/><polygon class="cls-8" points="1242.59 313.75 1251.08 322.23 1242.59 330.7 1249.79 330.7 1258.27 322.23 1249.79 313.75 1242.59 313.75"/><polygon class="cls-8" points="1066.67 313.75 1058.19 322.23 1066.67 330.7 1059.48 330.7 1051 322.23 1059.48 313.75 1066.67 313.75"/><path class="cls-4" d="M331.06,686.34V579.26a8.46,8.46,0,0,0-8.45-8.46H161.21a8.46,8.46,0,0,0-8.45,8.46V686.34H141.47c1,7.65,6.3,13.53,12.66,13.53H328.8c6.36,0,11.67-5.88,12.67-13.53ZM162.42,580.46h159V686.34h-159Z"/><line class="cls-5" x1="413.32" y1="483.53" x2="336.4" y2="560.44"/><polygon class="cls-6" points="400.29 484.57 412.28 484.57 412.27 496.56 417.36 491.47 417.36 479.48 405.38 479.48 400.29 484.57"/><polygon class="cls-6" points="337.45 547.41 337.45 559.4 349.44 559.39 344.35 564.48 332.36 564.48 332.36 552.5 337.45 547.41"/><path class="cls-4" d="M586.25,765.86V658.77a8.46,8.46,0,0,0-8.46-8.45H416.4a8.47,8.47,0,0,0-8.46,8.45V765.86H396.65c1,7.64,6.31,13.53,12.67,13.53H584c6.36,0,11.67-5.89,12.66-13.53ZM417.61,660h159V765.86h-159Z"/><path class="cls-4" d="M1447.26,368.39V250.1c0-5.15-3.79-9.34-8.46-9.34H1277.41c-4.66,0-8.46,4.19-8.46,9.34V368.39h-11.29c1,8.45,6.31,14.95,12.67,14.95H1445c6.36,0,11.67-6.5,12.66-14.95Zm-168.64-117h159v117h-159Z"/><line class="cls-5" x1="496.65" y1="521.43" x2="496.65" y2="634"/><polygon class="cls-6" points="488.18 531.39 496.65 522.91 505.13 531.39 505.13 524.19 496.65 515.71 488.18 524.19 488.18 531.39"/><polygon class="cls-6" points="488.18 624.04 496.65 632.52 505.13 624.04 505.13 631.24 496.65 639.71 488.18 631.24 488.18 624.04"/><path class="cls-8" d="M1188.4,194.63V165.74a28.14,28.14,0,0,0-28.11-28.11h-24a28.14,28.14,0,0,0-28.11,28.11v28.9a55.19,55.19,0,1,0,80.27,0Zm-71.77-28.89a19.64,19.64,0,0,1,19.61-19.62h24a19.64,19.64,0,0,1,19.62,19.62v21.52a55,55,0,0,0-63.28,0Zm31.64,113.78a47,47,0,1,1,47.08-47.08A47.13,47.13,0,0,1,1148.27,279.52Zm0-86.81A39.73,39.73,0,1,0,1188,232.44,39.77,39.77,0,0,0,1148.27,192.71Zm5.26,45.54v14.86h-6.77V238.25a11.09,11.09,0,1,1,6.77,0Z"/><g id="type_OL" data-name="type OL"><path class="cls-3" d="M796.57,287.88l.5,1.86h.09l.52-1.86,5.8-16.13h3.2l-8.3,21.88h-2.53l-8.3-21.88h3.21Z"/><path class="cls-3" d="M812.26,273.21h-3v-3h3Zm0,20.42h-3V277.38h3Z"/><path class="cls-3" d="M824.57,280l-1.53-.09a3.37,3.37,0,0,0-3.34,2.16v11.56h-3V277.38h2.66l.2,2.51a5.88,5.88,0,0,1,1.76-2.07,4.16,4.16,0,0,1,2.46-.75,3.36,3.36,0,0,1,.65.05l.51.12Z"/><path class="cls-3" d="M831.8,273.46v3.92h3.65v2.19H831.8v9.84a2.55,2.55,0,0,0,.43,1.65,1.39,1.39,0,0,0,1.12.49,5.5,5.5,0,0,0,.94-.09,2.68,2.68,0,0,0,.78-.21l.66,2a4.15,4.15,0,0,1-1.39.51,8.36,8.36,0,0,1-1.75.19,3.32,3.32,0,0,1-2.73-1.24,6.13,6.13,0,0,1-1-3.88v-9.25h-2.51v-2.19h2.51v-3.92Z"/><path class="cls-3" d="M848.82,291.19a5.42,5.42,0,0,1-2,2,5.63,5.63,0,0,1-2.85.71,5.36,5.36,0,0,1-4.22-1.7q-1.51-1.71-1.52-5.28v-9.58h2.95V287a5.91,5.91,0,0,0,.8,3.58,3,3,0,0,0,2.47,1,5.13,5.13,0,0,0,2.69-.65,4,4,0,0,0,1.59-1.83V277.38h2.95v16.25H849Z"/><path class="cls-3" d="M865.63,293.63c-.09-.45-.17-.86-.22-1.24a10.64,10.64,0,0,1-.12-1.12,6.72,6.72,0,0,1-2.06,1.9,5.17,5.17,0,0,1-2.8.77,5.42,5.42,0,0,1-3.92-1.3,4.7,4.7,0,0,1-1.36-3.57,4.22,4.22,0,0,1,1.88-3.65,8.84,8.84,0,0,1,5.15-1.32h3.11v-1.61a3,3,0,0,0-.84-2.27,3.4,3.4,0,0,0-2.47-.81,3.52,3.52,0,0,0-2.31.7,2.17,2.17,0,0,0-.85,1.74l-2.81,0,0-.1a3.92,3.92,0,0,1,1.62-3.25,6.8,6.8,0,0,1,4.54-1.46,6.6,6.6,0,0,1,4.44,1.4,5,5,0,0,1,1.65,4v7.83a13,13,0,0,0,.1,1.69,7.91,7.91,0,0,0,.34,1.59Zm-4.76-2.16a5,5,0,0,0,2.83-.81,3.82,3.82,0,0,0,1.59-1.89V286.1h-3.2a4.41,4.41,0,0,0-2.92.9,2.7,2.7,0,0,0-1.07,2.13,2.17,2.17,0,0,0,.7,1.71A3,3,0,0,0,860.87,291.47Z"/><path class="cls-3" d="M875.82,293.63h-3V270.19h3Z"/><path class="cls-3" d="M891.35,285.16v8.47h-3V271.75h8.47a7.78,7.78,0,0,1,5.53,1.87,6.92,6.92,0,0,1,0,9.69,7.81,7.81,0,0,1-5.53,1.85Zm0-2.33h5.52a4.16,4.16,0,0,0,4.56-4.34,4.51,4.51,0,0,0-1.14-3.12,4.35,4.35,0,0,0-3.42-1.27h-5.52Z"/><path class="cls-3" d="M915.37,280l-1.53-.09a3.37,3.37,0,0,0-3.35,2.16v11.56h-3V277.38h2.66l.2,2.51a5.78,5.78,0,0,1,1.76-2.07,4.16,4.16,0,0,1,2.46-.75,3.43,3.43,0,0,1,.65.05l.5.12Z"/><path class="cls-3" d="M921.55,273.21H918.6v-3h2.95Zm0,20.42H918.6V277.38h2.95Z"/><path class="cls-3" d="M931.52,288.83l.28,1.24h.1l.31-1.24,3.86-11.45h3L933,293.63h-2.23l-6.18-16.25h3Z"/><path class="cls-3" d="M951.07,293.63c-.09-.45-.17-.86-.23-1.24s-.09-.75-.11-1.12a6.72,6.72,0,0,1-2.06,1.9,5.2,5.2,0,0,1-2.8.77,5.42,5.42,0,0,1-3.92-1.3,4.7,4.7,0,0,1-1.36-3.57,4.19,4.19,0,0,1,1.88-3.65,8.82,8.82,0,0,1,5.15-1.32h3.11v-1.61a3,3,0,0,0-.84-2.27,3.43,3.43,0,0,0-2.48-.81,3.51,3.51,0,0,0-2.3.7,2.17,2.17,0,0,0-.85,1.74l-2.81,0,0-.1a3.92,3.92,0,0,1,1.62-3.25,6.8,6.8,0,0,1,4.54-1.46,6.6,6.6,0,0,1,4.44,1.4,5,5,0,0,1,1.65,4v7.83a15.13,15.13,0,0,0,.09,1.69,8.68,8.68,0,0,0,.35,1.59Zm-4.77-2.16a5,5,0,0,0,2.84-.81,3.82,3.82,0,0,0,1.59-1.89V286.1h-3.21a4.37,4.37,0,0,0-2.91.9,2.7,2.7,0,0,0-1.07,2.13,2.2,2.2,0,0,0,.69,1.71A3,3,0,0,0,946.3,291.47Z"/><path class="cls-3" d="M961.76,273.46v3.92h3.64v2.19h-3.64v9.84a2.56,2.56,0,0,0,.42,1.65,1.4,1.4,0,0,0,1.12.49,5.41,5.41,0,0,0,.94-.09,2.5,2.5,0,0,0,.78-.21l.66,2a4,4,0,0,1-1.38.51,8.45,8.45,0,0,1-1.76.19,3.32,3.32,0,0,1-2.73-1.24,6.13,6.13,0,0,1-1-3.88v-9.25h-2.51v-2.19h2.51v-3.92Z"/><path class="cls-3" d="M975.37,293.94a7.5,7.5,0,0,1-5.78-2.24,8.3,8.3,0,0,1-2.08-5.88v-.66a8.24,8.24,0,0,1,2.11-5.81,6.84,6.84,0,0,1,5.2-2.28,6,6,0,0,1,4.77,1.87,7.78,7.78,0,0,1,1.62,5.25v1.64H970.57l0,.08a6.31,6.31,0,0,0,1.12,4.11,4.36,4.36,0,0,0,3.71,1.59,8.3,8.3,0,0,0,2.47-.33,11.75,11.75,0,0,0,2-.9l.73,2.09a7.8,7.8,0,0,1-2,1A9.59,9.59,0,0,1,975.37,293.94Zm-.55-14.53a3.71,3.71,0,0,0-2.79,1.16,5.31,5.31,0,0,0-1.35,3l0,.09h7.55v-.31a4.56,4.56,0,0,0-.81-2.87A3.09,3.09,0,0,0,974.82,279.41Z"/><path class="cls-3" d="M863.16,325l0,.09a6.52,6.52,0,0,1-2.21,5.15,8.47,8.47,0,0,1-6,2.07,7.93,7.93,0,0,1-6.17-2.62,9.6,9.6,0,0,1-2.38-6.68v-3.89a9.63,9.63,0,0,1,2.38-6.67,7.91,7.91,0,0,1,6.17-2.64,8.72,8.72,0,0,1,6,2,6.45,6.45,0,0,1,2.17,5.23l0,.1h-2.83a4.82,4.82,0,0,0-1.38-3.63,5.47,5.47,0,0,0-3.92-1.33,4.87,4.87,0,0,0-4.07,2,7.9,7.9,0,0,0-1.52,4.94V323a8,8,0,0,0,1.52,5,4.86,4.86,0,0,0,4.07,2,5.43,5.43,0,0,0,3.92-1.33,4.82,4.82,0,0,0,1.38-3.65Z"/><path class="cls-3" d="M869.8,332h-3V308.59h3Z"/><path class="cls-3" d="M873.56,323.75a8.85,8.85,0,0,1,2-5.95,7.48,7.48,0,0,1,10.84,0,8.85,8.85,0,0,1,2,6v.32a8.85,8.85,0,0,1-2,5.95,7.5,7.5,0,0,1-10.85,0,8.81,8.81,0,0,1-2-5.95Zm3,.32a7.42,7.42,0,0,0,1.13,4.26A3.77,3.77,0,0,0,881,330a3.72,3.72,0,0,0,3.3-1.68,7.43,7.43,0,0,0,1.14-4.26v-.32a7.46,7.46,0,0,0-1.14-4.25,4.12,4.12,0,0,0-6.65,0,7.46,7.46,0,0,0-1.13,4.25Z"/><path class="cls-3" d="M902.45,329.59a5.47,5.47,0,0,1-2,2,5.7,5.7,0,0,1-2.86.71,5.38,5.38,0,0,1-4.22-1.7q-1.51-1.71-1.52-5.28v-9.58h3v9.61a5.92,5.92,0,0,0,.79,3.58,3,3,0,0,0,2.47,1,5.1,5.1,0,0,0,2.69-.65,4,4,0,0,0,1.59-1.83V315.78h3V332h-2.64Z"/><path class="cls-3" d="M908.84,324.2a10.72,10.72,0,0,1,1.71-6.33,5.52,5.52,0,0,1,4.78-2.4,6.11,6.11,0,0,1,2.61.53,5.61,5.61,0,0,1,1.94,1.57v-9h3V332h-2.27l-.47-2.11a5.39,5.39,0,0,1-2,1.81,6,6,0,0,1-2.79.61,5.76,5.76,0,0,1-4.75-2.15,8.84,8.84,0,0,1-1.71-5.68Zm3,.31a6.73,6.73,0,0,0,1,4,3.64,3.64,0,0,0,3.21,1.48,4.09,4.09,0,0,0,2.3-.62,4.67,4.67,0,0,0,1.53-1.72v-7.49a4.62,4.62,0,0,0-1.54-1.65,4.1,4.1,0,0,0-2.26-.6,3.51,3.51,0,0,0-3.24,1.77,8.92,8.92,0,0,0-1,4.56Z"/><path class="cls-4" d="M484.6,393v8.47h-3V379.57h8.47a7.79,7.79,0,0,1,5.53,1.87,6.92,6.92,0,0,1,0,9.69,7.83,7.83,0,0,1-5.53,1.85Zm0-2.33h5.52a4.16,4.16,0,0,0,4.56-4.34,4.51,4.51,0,0,0-1.14-3.12,4.35,4.35,0,0,0-3.42-1.27H484.6Z"/><path class="cls-4" d="M511.47,399a5.47,5.47,0,0,1-2,2,5.67,5.67,0,0,1-2.86.71,5.38,5.38,0,0,1-4.22-1.7q-1.51-1.71-1.51-5.28V385.2h2.95v9.61a5.84,5.84,0,0,0,.8,3.58,3,3,0,0,0,2.46,1,5.1,5.1,0,0,0,2.69-.65,4,4,0,0,0,1.6-1.83V385.2h3v16.25h-2.64Z"/><path class="cls-4" d="M532.66,393.93a8.84,8.84,0,0,1-1.71,5.68,5.73,5.73,0,0,1-4.74,2.15,6.07,6.07,0,0,1-2.89-.64,5.27,5.27,0,0,1-2-1.91l-.48,2.24h-2.27V378h3v9.17a5.41,5.41,0,0,1,2-1.7,5.82,5.82,0,0,1,2.71-.59,5.53,5.53,0,0,1,4.77,2.4,10.72,10.72,0,0,1,1.71,6.33Zm-2.95-.31a8.72,8.72,0,0,0-1.06-4.56,3.48,3.48,0,0,0-3.21-1.77,4.23,4.23,0,0,0-2.4.67,4.63,4.63,0,0,0-1.53,1.82v7a4.71,4.71,0,0,0,1.53,1.9,4.17,4.17,0,0,0,2.43.68,3.63,3.63,0,0,0,3.2-1.48,6.8,6.8,0,0,0,1-4Z"/><path class="cls-4" d="M539.4,401.45h-3V378h3Z"/><path class="cls-4" d="M547.1,381h-3v-3h3Zm0,20.42h-3V385.2h3Z"/><path class="cls-4" d="M558.16,399.43a3.93,3.93,0,0,0,2.54-.9,2.76,2.76,0,0,0,1.12-2.22h2.65l0,.09a4.56,4.56,0,0,1-1.88,3.73,6.75,6.75,0,0,1-4.47,1.63,6.55,6.55,0,0,1-5.32-2.34,8.74,8.74,0,0,1-1.94-5.78V393a8.73,8.73,0,0,1,2-5.76,7.15,7.15,0,0,1,9.91-.68,5.21,5.21,0,0,1,1.76,4.13l0,.09h-2.67a3.41,3.41,0,0,0-1.06-2.51,3.81,3.81,0,0,0-5.82.68,7.39,7.39,0,0,0-1.09,4.05v.63a7.4,7.4,0,0,0,1.09,4.08A3.56,3.56,0,0,0,558.16,399.43Z"/><path class="cls-4" d="M592.37,394.45l0,.09a6.52,6.52,0,0,1-2.21,5.15,8.47,8.47,0,0,1-6,2.07,7.93,7.93,0,0,1-6.17-2.62,9.56,9.56,0,0,1-2.38-6.68v-3.89a9.58,9.58,0,0,1,2.38-6.67,7.91,7.91,0,0,1,6.17-2.64,8.72,8.72,0,0,1,6,2,6.45,6.45,0,0,1,2.17,5.23l0,.1h-2.83a4.78,4.78,0,0,0-1.39-3.63,5.43,5.43,0,0,0-3.91-1.33,4.87,4.87,0,0,0-4.07,2,7.84,7.84,0,0,0-1.52,4.94v3.92a7.94,7.94,0,0,0,1.52,5,4.86,4.86,0,0,0,4.07,2,5.39,5.39,0,0,0,3.91-1.33,4.79,4.79,0,0,0,1.39-3.65Z"/><path class="cls-4" d="M599,401.45h-3V378h3Z"/><path class="cls-4" d="M602.77,393.17a8.85,8.85,0,0,1,2-5.95,7.48,7.48,0,0,1,10.84,0,8.85,8.85,0,0,1,2,6v.33a8.84,8.84,0,0,1-2,5.94,7.5,7.5,0,0,1-10.85,0,8.8,8.8,0,0,1-2-5.94Zm3,.33a7.42,7.42,0,0,0,1.14,4.25,3.77,3.77,0,0,0,3.35,1.68,3.72,3.72,0,0,0,3.3-1.68,7.42,7.42,0,0,0,1.14-4.25v-.33a7.48,7.48,0,0,0-1.14-4.25,4.12,4.12,0,0,0-6.65,0,7.48,7.48,0,0,0-1.14,4.25Z"/><path class="cls-4" d="M631.66,399a5.47,5.47,0,0,1-2,2,5.7,5.7,0,0,1-2.86.71,5.36,5.36,0,0,1-4.22-1.7q-1.52-1.71-1.52-5.28V385.2h3v9.61a5.92,5.92,0,0,0,.79,3.58,3,3,0,0,0,2.47,1,5.13,5.13,0,0,0,2.69-.65,4,4,0,0,0,1.59-1.83V385.2h3v16.25h-2.64Z"/><path class="cls-4" d="M638.05,393.62a10.72,10.72,0,0,1,1.71-6.33,5.51,5.51,0,0,1,4.78-2.4,6.11,6.11,0,0,1,2.61.53,5.41,5.41,0,0,1,1.93,1.58v-9h3v23.44h-2.27l-.47-2.11a5.26,5.26,0,0,1-2,1.81,6,6,0,0,1-2.78.61,5.74,5.74,0,0,1-4.75-2.15,8.84,8.84,0,0,1-1.71-5.68Zm3,.31a6.8,6.8,0,0,0,1,4,3.67,3.67,0,0,0,3.22,1.48,4.09,4.09,0,0,0,2.3-.62,4.56,4.56,0,0,0,1.52-1.72v-7.49a4.51,4.51,0,0,0-1.53-1.65,4.1,4.1,0,0,0-2.26-.6,3.51,3.51,0,0,0-3.24,1.77,8.82,8.82,0,0,0-1,4.56Z"/></g></svg>